<svg xmlns="http://www.w3.org/2000/svg" xmlns:xlink="http://www.w3.org/1999/xlink" width="1080" zoomAndPan="magnify" viewBox="0 0 810 809.999993" height="1080" preserveAspectRatio="xMidYMid meet" version="1.0"><defs><clipPath id="81f71e7aa3"><path d="M 5.871094 6.164062 L 803.871094 6.164062 L 803.871094 804.164062 L 5.871094 804.164062 Z M 5.871094 6.164062 " clip-rule="nonzero"/></clipPath></defs><path fill="#ffffff" d="M 707.769531 601.71875 C 701.144531 624.304688 676.601562 640.863281 654.773438 639.507812 C 662.148438 639.8125 668.773438 637.402344 674.195312 633.1875 C 690.753906 620.539062 691.660156 595.847656 676.753906 581.242188 C 673.140625 577.628906 668.925781 573.566406 664.710938 569.351562 C 671.785156 582.296875 668.925781 582.597656 667.871094 598.105469 C 666.816406 613.613281 657.484375 622.796875 645.589844 631.679688 C 633.695312 640.5625 638.363281 664.953125 654.773438 664.953125 C 634.75 667.964844 629.480469 641.316406 635.953125 626.410156 C 627.671875 632.433594 617.132812 638.457031 617.886719 650.046875 C 618.035156 651.855469 618.339844 653.660156 618.789062 655.46875 C 623.910156 674.4375 648.148438 681.0625 661.246094 666.460938 C 664.257812 663.148438 665.761719 659.683594 664.859375 656.824219 C 675.550781 677.601562 647.695312 695.214844 629.328125 687.386719 C 634.148438 700.785156 625.867188 717.347656 611.863281 720.808594 C 619.84375 715.089844 622.703125 708.464844 622.253906 698.828125 C 621.800781 689.34375 614.726562 683.925781 606.144531 680.761719 C 611.109375 691.601562 610.808594 705.152344 604.1875 715.089844 C 597.5625 725.027344 586.871094 729.089844 575.730469 730.144531 C 564.589844 731.347656 548.628906 726.382812 548.929688 714.1875 C 556.910156 735.566406 607.195312 713.28125 583.558594 686.03125 C 575.429688 676.695312 559.621094 680.914062 551.792969 669.167969 C 557.0625 684.976562 581.300781 688.140625 582.957031 703.949219 C 573.019531 692.355469 557.664062 691.601562 546.070312 681.363281 C 534.476562 671.125 524.691406 658.929688 526.347656 642.972656 C 528.003906 626.863281 533.875 613.3125 543.058594 600.214844 C 517.917969 621.292969 512.347656 669.773438 545.921875 686.632812 C 512.648438 680.613281 502.859375 647.941406 513.097656 627.617188 C 523.335938 607.289062 543.964844 596 551.792969 574.769531 C 542.757812 593.289062 520.777344 597.050781 505.269531 607.441406 C 512.949219 598.257812 523.636719 597.203125 531.917969 588.472656 C 540.199219 579.589844 543.964844 564.984375 540.046875 553.089844 C 539.445312 565.585938 532.820312 576.425781 523.9375 585.609375 C 515.054688 594.792969 501.65625 594.191406 494.429688 604.730469 C 487.050781 615.269531 483.738281 626.410156 479.074219 638.757812 C 474.554688 651.101562 473.050781 667.363281 473.203125 681.515625 C 473.351562 691 474.859375 700.636719 476.511719 709.96875 C 477.867188 717.195312 472.296875 723.671875 464.921875 723.820312 C 426.980469 723.820312 323.699219 723.371094 292.984375 723.519531 C 288.46875 723.519531 285.304688 719.003906 286.8125 714.789062 C 291.480469 701.691406 300.210938 689.191406 306.082031 676.394531 C 299.308594 674.890625 292.230469 671.878906 285.910156 668.867188 C 279.585938 666.007812 273.714844 662.695312 267.691406 659.535156 C 261.667969 656.371094 255.949219 652.910156 250.074219 649.597656 C 244.203125 646.285156 238.785156 642.519531 232.914062 639.207031 C 227.039062 635.894531 221.769531 632.132812 215.898438 628.667969 C 210.027344 625.207031 203.703125 622.195312 198.132812 618.128906 C 192.5625 614.066406 188.5 609.398438 185.636719 603.074219 C 182.777344 596.75 180.667969 589.375 178.863281 582.296875 C 177.054688 575.222656 174.949219 567.695312 172.992188 560.46875 C 171.035156 553.242188 169.226562 545.261719 168.171875 537.734375 C 167.121094 530.207031 165.914062 519.816406 166.066406 512.289062 C 166.214844 504.761719 165.464844 494.976562 158.539062 491.363281 C 151.761719 487.75 146.191406 485.941406 139.71875 482.628906 C 133.242188 479.316406 127.972656 477.210938 122.703125 472.089844 C 117.285156 466.972656 114.125 463.960938 109.90625 457.183594 C 105.691406 450.410156 103.585938 448.152344 99.367188 440.171875 C 95.304688 432.945312 105.089844 430.085938 110.359375 435.65625 C 107.949219 432.644531 105.691406 427.527344 104.1875 421.203125 C 98.765625 399.824219 106.894531 377.390625 124.359375 363.992188 C 127.523438 361.582031 130.835938 359.472656 133.996094 358.117188 C 129.179688 362.636719 123.007812 367.605469 120.898438 374.078125 C 128.878906 365.042969 137.910156 354.503906 149.957031 350.890625 C 145.890625 354.203125 137.910156 357.214844 134.75 362.484375 C 145.738281 354.65625 158.839844 350.890625 169.527344 342.914062 C 168.324219 347.429688 163.503906 349.839844 160.796875 353.152344 C 168.925781 350.441406 177.808594 349.234375 184.734375 343.664062 C 184.582031 346.527344 181.574219 347.277344 180.367188 349.539062 C 184.582031 348.484375 189.703125 346.828125 191.207031 342.308594 C 191.660156 345.921875 189.101562 348.332031 186.84375 350.289062 C 194.519531 349.839844 203.402344 352.546875 210.179688 355.257812 C 216.804688 358.117188 221.167969 362.9375 225.535156 368.207031 C 229.902344 373.476562 230.503906 381.90625 236.828125 385.21875 C 243.148438 388.53125 258.507812 383.414062 252.9375 396.660156 C 258.355469 397.714844 263.175781 402.53125 260.917969 408.253906 C 265.132812 412.167969 262.722656 418.644531 265.882812 424.363281 C 268.894531 430.085938 262.121094 435.65625 258.65625 439.269531 C 255.042969 442.882812 249.625 447.398438 248.722656 452.519531 C 256.097656 455.832031 263.476562 460.195312 269.046875 465.617188 C 270.851562 457.9375 276.421875 460.046875 281.542969 457.035156 C 286.660156 454.023438 292.984375 456.882812 297.199219 460.648438 C 301.265625 464.410156 304.578125 468.628906 306.082031 474.199219 C 307.589844 479.769531 297.953125 484.285156 299.457031 488.800781 C 300.964844 493.46875 307.289062 497.984375 309.09375 502.503906 C 311.804688 494.371094 315.117188 485.039062 319.933594 477.8125 C 324.753906 470.433594 330.472656 464.5625 337.25 458.839844 C 343.871094 453.121094 351.101562 448.300781 358.628906 443.9375 C 366.15625 439.570312 373.832031 435.203125 380.457031 429.484375 C 386.933594 423.761719 393.253906 418.945312 397.921875 411.265625 C 402.589844 403.585938 407.40625 395.910156 409.96875 387.027344 C 412.375 377.992188 415.539062 369.863281 421.257812 361.882812 C 426.980469 354.054688 435.863281 353.300781 442.335938 346.675781 C 448.8125 339.902344 442.488281 326.652344 439.476562 318.824219 C 436.464844 310.996094 432.25 303.917969 425.023438 297.746094 C 417.644531 291.574219 408.460938 300.457031 403.644531 307.230469 C 398.828125 314.003906 391.296875 320.027344 384.824219 324.695312 C 378.351562 329.363281 362.242188 331.769531 360.886719 320.027344 C 359.378906 308.132812 341.765625 314.15625 343.722656 300.90625 C 331.980469 303.164062 337.097656 294.28125 333.332031 287.960938 C 329.570312 281.636719 319.632812 289.164062 314.0625 283.894531 C 308.644531 278.777344 312.40625 271.546875 313.761719 264.320312 C 314.816406 258.601562 314.363281 254.085938 313.761719 248.210938 C 313.460938 245.050781 312.105469 242.191406 309.847656 239.933594 L 308.492188 238.578125 C 307.136719 237.222656 305.480469 236.46875 303.523438 236.46875 C 302.921875 236.46875 297.199219 235.566406 297.199219 235.566406 L 295.695312 235.113281 C 279.886719 230.144531 266.335938 215.390625 262.421875 199.28125 C 261.820312 202.746094 262.570312 206.960938 264.226562 211.324219 C 269.195312 225.027344 279.886719 235.867188 293.285156 241.589844 C 299.15625 244.148438 305.480469 246.253906 310.296875 246.40625 C 302.320312 248.210938 292.082031 248.363281 284.402344 246.105469 C 276.722656 243.996094 270.703125 240.984375 264.378906 236.320312 C 241.945312 219.605469 241.191406 210.121094 238.484375 202.746094 C 235.621094 195.367188 235.171875 184.675781 236.226562 176.546875 C 237.277344 168.566406 238.632812 159.984375 241.496094 152.757812 C 244.355469 145.53125 249.023438 140.867188 253.386719 134.84375 C 257.753906 128.820312 268.144531 128.066406 269.496094 121.292969 C 270.851562 114.367188 274.164062 106.539062 279.886719 101.871094 C 285.609375 97.203125 290.726562 93.441406 295.84375 88.019531 C 300.964844 82.75 304.726562 78.234375 309.996094 73.113281 C 315.265625 67.996094 320.234375 63.929688 326.257812 59.714844 C 332.28125 55.5 338 51.734375 345.078125 48.875 C 352.152344 46.015625 359.53125 43.152344 367.511719 41.496094 C 375.488281 39.992188 386.632812 38.9375 395.0625 39.238281 C 403.492188 39.539062 413.28125 40.894531 420.957031 43.152344 C 428.636719 45.414062 435.109375 47.972656 442.035156 51.132812 C 448.960938 54.296875 454.683594 58.058594 461.007812 61.972656 C 467.328125 65.886719 472.597656 69.953125 478.472656 74.320312 C 484.191406 78.835938 488.707031 83.652344 493.675781 88.773438 C 498.644531 93.890625 503.3125 99.3125 506.777344 105.484375 C 510.238281 111.65625 549.835938 189.34375 556.460938 211.929688 C 560.375 225.175781 567.449219 237.371094 577.839844 246.554688 C 581 249.417969 584.460938 251.976562 588.078125 254.386719 C 612.917969 270.496094 629.628906 296.84375 633.84375 326.652344 C 633.84375 326.804688 633.84375 326.804688 633.84375 326.953125 C 635.351562 336.890625 640.621094 343.964844 648.300781 349.539062 C 650.558594 351.191406 655.527344 355.410156 661.398438 360.527344 C 685.9375 382.207031 701.746094 412.167969 704.910156 444.839844 C 705.511719 451.464844 705.511719 457.183594 704.457031 461.101562 C 700.089844 476.304688 689.703125 482.78125 677.355469 492.113281 C 665.160156 501.449219 668.472656 525.539062 686.238281 526.441406 C 671.183594 530.207031 654.921875 508.375 663.65625 494.976562 C 672.386719 481.726562 683.832031 471.941406 683.378906 455.226562 C 683.078125 438.515625 673.59375 426.773438 660.191406 418.191406 C 677.054688 435.957031 676.453125 467.273438 662.601562 485.941406 C 648.601562 504.609375 657.933594 535.023438 674.796875 546.015625 C 696.023438 560.769531 714.394531 578.984375 707.769531 601.71875 Z M 707.769531 601.71875 " fill-opacity="1" fill-rule="nonzero"/><g clip-path="url(#81f71e7aa3)"><path fill="#ffffff" d="M 404.851562 6.164062 C 184.71875 6.164062 5.871094 185.011719 5.871094 405.144531 C 5.871094 625.28125 184.71875 804.128906 404.851562 804.128906 C 624.984375 804.128906 803.835938 625.28125 803.835938 405.144531 C 803.835938 185.011719 624.984375 6.164062 404.851562 6.164062 Z M 404.851562 23.511719 C 615.84375 23.511719 786.488281 194.152344 786.488281 405.144531 C 786.488281 616.136719 615.84375 786.78125 404.851562 786.78125 C 193.859375 786.78125 23.214844 616.136719 23.214844 405.144531 C 23.214844 194.152344 193.859375 23.511719 404.851562 23.511719 Z M 404.851562 23.511719 " fill-opacity="1" fill-rule="nonzero"/></g></svg>